<?xml version="1.0" standalone="no"?>
<!DOCTYPE svg PUBLIC "-//W3C//DTD SVG 20010904//EN"
 "http://www.w3.org/TR/2001/REC-SVG-20010904/DTD/svg10.dtd">
<svg version="1.0" xmlns="http://www.w3.org/2000/svg"
 width="200.000000pt" height="200.000000pt" viewBox="0 0 200.000000 200.000000"
 preserveAspectRatio="xMidYMid meet">
<metadata>
Created by potrace 1.14, written by Peter Selinger 2001-2017
</metadata>
<g transform="translate(0.000000,200.000000) scale(0.100000,-0.100000)"
fill="#000000" stroke="none">
<path d="M102 1799 c-15 -24 -17 -1595 -2 -1619 8 -13 120 -15 900 -15 780 0
892 2 900 15 16 24 12 1601 -3 1621 -12 15 -89 17 -898 17 -861 0 -885 0 -897
-19z m1725 -147 l2 -82 -830 0 -830 0 2 78 c1 42 5 79 9 82 5 3 376 5 827 5
l818 0 2 -83z m1 -783 l0 -619 -151 -1 c-130 0 -1383 0 -1474 1 l-32 0 0 619
0 619 829 -1 828 0 0 -618z"/>
<path d="M1092 1303 c-9 -16 -51 -153 -116 -373 -35 -122 -135 -453 -141 -467
-2 -7 4 -22 14 -35 18 -21 20 -21 43 -6 15 10 30 33 35 55 6 21 26 92 46 158
69 233 188 630 192 642 6 17 -22 43 -45 43 -11 0 -23 -8 -28 -17z"/>
<path d="M686 1148 c-66 -38 -346 -262 -346 -276 0 -25 7 -32 100 -100 47 -35
99 -74 115 -86 86 -68 141 -106 151 -106 29 0 44 14 44 39 -1 20 -14 35 -57
66 -31 22 -61 45 -67 50 -6 6 -48 38 -94 71 l-83 62 73 53 c40 29 75 56 78 59
3 3 38 30 78 59 76 58 91 90 53 111 -23 12 -21 12 -45 -2z"/>
<path d="M1262 1148 c-32 -32 -14 -54 138 -168 l150 -112 -92 -70 c-146 -108
-150 -112 -180 -136 -36 -31 -38 -69 -3 -78 15 -4 33 -1 45 7 160 112 331 248
337 268 7 28 11 24 -167 158 -63 48 -121 93 -128 100 -35 34 -82 49 -100 31z"/>
</g>
</svg>
